#!OML:ASF H:\Dans Jumps\Project 1\Capture day 1\Session 1\subject.ASF
:FULLY-SPECIFIED
:DEGREES
142
root 0.346192 17.5457 -13.7307 4.48666 -3.71634 -1.24808
lowerback -4.82254 -1.13568 -0.489364
upperback 0.691919 -1.53257 1.37888
thorax 3.46817 -0.786028 1.57653
lowerneck -14.505 -3.60165 -3.90538
upperneck 18.8714 -4.63182 2.63652
head 8.41715 -2.20496 0.994487
rclavicle 6.70898e-015 5.56597e-015
rhumerus -28.2999 -28.9822 -70.7733
rradius 22.684
rwrist 38.9463
rhand -21.385 -28.2527
rfingers 7.12502
rthumb 5.00261 -58.1736
lclavicle 6.70898e-015 5.56597e-015
lhumerus -26.3205 19.8134 76.7808
lradius 14.2438
lwrist -13.2266
lhand -24.2442 -2.8757
lfingers 7.12502
lthumb 2.24151 27.0923
rfemur -8.83687 -1.61565 18.6753
rtibia 18.5608
rfoot -13.664 -0.855138
rtoes 10.7845
lfemur -6.02916 6.96598 -17.5795
ltibia 15.1728
lfoot -10.8688 6.4996
ltoes -0.540491
143
root 0.345371 17.5457 -13.7344 4.49193 -3.70462 -1.24272
lowerback -4.79051 -1.13727 -0.482131
upperback 0.719268 -1.53548 1.38293
thorax 3.47841 -0.787569 1.57675
lowerneck -14.508 -3.5505 -3.89095
upperneck 18.982 -4.57018 2.64897
head 8.45276 -2.1733 1.00318
rclavicle 7.05686e-015 -7.95139e-015
rhumerus -28.2926 -28.9242 -71.0073
rradius 22.5909
rwrist 39.0811
rhand -20.9311 -28.1279
rfingers 7.12502
rthumb 5.44084 -58.038
lclavicle 7.05686e-015 -7.95139e-015
lhumerus -26.4003 19.5659 77.0632
lradius 14.2129
lwrist -13.0815
lhand -23.7206 -2.67373
lfingers 7.12502
lthumb 2.7472 27.2883
rfemur -8.86339 -1.61163 18.6734
rtibia 18.5777
rfoot -13.6608 -0.867189
rtoes 10.7838
lfemur -6.06444 6.97384 -17.5836
ltibia 15.1959
lfoot -10.8655 6.48392
ltoes -0.562912
144
root 0.344674 17.5456 -13.7384 4.49369 -3.69525 -1.23951
lowerback -4.75638 -1.13561 -0.470624
upperback 0.751783 -1.53432 1.38611
thorax 3.49254 -0.787031 1.574
lowerneck -14.5314 -3.49728 -3.86206
upperneck 19.1172 -4.50498 2.64296
head 8.49946 -2.14056 1.00337
rclavicle 1.78285e-014 2.78299e-015
rhumerus -28.264 -28.888 -71.2355
rradius 22.4916
rwrist 39.2573
rhand -20.4927 -28.0527
rfingers 7.12502
rthumb 5.86411 -57.9515
lclavicle 1.78285e-014 2.78299e-015
lhumerus -26.4546 19.3156 77.3401
lradius 14.1863
lwrist -12.9456
lhand -23.2228 -2.49332
lfingers 7.12502
lthumb 3.22794 27.462
rfemur -8.88854 -1.60667 18.6733
rtibia 18.5955
rfoot -13.6595 -0.87797
rtoes 10.7883
lfemur -6.0973 6.98088 -17.5858
ltibia 15.2202
lfoot -10.86 6.47191
ltoes -0.58356
145
root 0.344023 17.5456 -13.7428 4.49418 -3.68739 -1.23642
lowerback -4.72199 -1.13131 -0.457302
upperback 0.788011 -1.52976 1.38821
thorax 3.51017 -0.784783 1.56935
lowerneck -14.5746 -3.44057 -3.81636
upperneck 19.2778 -4.43376 2.61368
head 8.55727 -2.10591 0.993379
rclavicle -2.13569e-014 2.10712e-014
rhumerus -28.2204 -28.8358 -71.4691
rradius 22.4059
rwrist 39.4274
rhand -20.0731 -28.0131
rfingers 7.12502
rthumb 6.26927 -57.9003
lclavicle -2.13569e-014 2.10712e-014
lhumerus -26.4867 19.0798 77.6043
lradius 14.1666
lwrist -12.8463
lhand -22.7469 -2.31777
lfingers 7.12502
lthumb 3.68753 27.6301
rfemur -8.91408 -1.60216 18.6736
rtibia 18.6125
rfoot -13.6574 -0.88943
rtoes 10.7859
lfemur -6.13158 6.98703 -17.5884
ltibia 15.2474
lfoot -10.8534 6.46239
ltoes -0.609489
146
root 0.343423 17.5456 -13.7477 4.49434 -3.67966 -1.2326
lowerback -4.68683 -1.12482 -0.443444
upperback 0.826057 -1.52225 1.3888
thorax 3.5291 -0.781048 1.56307
lowerneck -14.6291 -3.37767 -3.75139
upperneck 19.457 -4.35324 2.56009
head 8.62227 -2.06786 0.972969
rclavicle 2.10339e-014 -2.38542e-015
rhumerus -28.1638 -28.7708 -71.7077
rradius 22.3333
rwrist 39.5792
rhand -19.6794 -27.9373
rfingers 7.12502
rthumb 6.64934 -57.8129
lclavicle 2.10339e-014 -2.38542e-015
lhumerus -26.4971 18.8792 77.8435
lradius 14.1399
lwrist -12.8193
lhand -22.3133 -2.17743
lfingers 7.12502
lthumb 4.10628 27.7627
rfemur -8.94118 -1.59769 18.6734
rtibia 18.6297
rfoot -13.6505 -0.902025
rtoes 10.7789
lfemur -6.16796 6.99414 -17.5921
ltibia 15.2759
lfoot -10.8456 6.45273
ltoes -0.636872
147
root 0.342878 17.5456 -13.753 4.49344 -3.67152 -1.22958
lowerback -4.64671 -1.11671 -0.428045
upperback 0.863099 -1.51264 1.38933
thorax 3.54408 -0.776212 1.55612
lowerneck -14.6786 -3.31019 -3.68197
upperneck 19.6508 -4.26582 2.49699
head 8.69105 -2.0273 0.949518
rclavicle -2.63638e-014 2.08724e-014
rhumerus -28.0997 -28.6936 -71.9463
rradius 22.2728
rwrist 39.7083
rhand -19.3213 -27.822
rfingers 7.12502
rthumb 6.995 -57.6864
lclavicle -2.63638e-014 2.08724e-014
lhumerus -26.4941 18.7125 78.0569
lradius 14.112
lwrist -12.8717
lhand -21.9246 -2.06102
lfingers 7.12502
lthumb 4.48155 27.8716
rfemur -8.96889 -1.59221 18.6744
rtibia 18.6476
rfoot -13.6435 -0.917739
rtoes 10.7672
lfemur -6.20539 6.99949 -17.5949
ltibia 15.3058
lfoot -10.8375 6.44428
ltoes -0.668822
148
root 0.342442 17.5455 -13.7587 4.49172 -3.66138 -1.22417
lowerback -4.60428 -1.10769 -0.413337
upperback 0.901644 -1.50175 1.38882
thorax 3.55927 -0.770744 1.54861
lowerneck -14.7271 -3.23556 -3.61255
upperneck 19.856 -4.16857 2.43356
head 8.76344 -1.9822 0.92717
rclavicle -1.9456e-014 -1.59028e-015
rhumerus -28.0225 -28.6046 -72.189
rradius 22.226
rwrist 39.8056
rhand -18.9981 -27.668
rfingers 7.12502
rthumb 7.30698 -57.5218
lclavicle -1.9456e-014 -1.59028e-015
lhumerus -26.4745 18.5852 78.2427
lradius 14.0794
lwrist -13.0144
lhand -21.6004 -1.99948
lfingers 7.12502
lthumb 4.79464 27.9263
rfemur -8.9971 -1.59115 18.6727
rtibia 18.6663
rfoot -13.6314 -0.931141
rtoes 10.7494
lfemur -6.24479 7.00476 -17.6005
ltibia 15.3383
lfoot -10.8311 6.43405
ltoes -0.700814
149
root 0.342117 17.5455 -13.7649 4.49026 -3.64922 -1.21944
lowerback -4.55899 -1.09879 -0.397516
upperback 0.94059 -1.49108 1.38898
thorax 3.57326 -0.765364 1.54119
lowerneck -14.7714 -3.1516 -3.54368
upperneck 20.0696 -4.05899 2.37265
head 8.83798 -1.93118 0.907351
rclavicle 1.68967e-014 -2.84262e-014
rhumerus -27.9327 -28.4788 -72.4436
rradius 22.2042
rwrist 39.8411
rhand -18.6936 -27.4667
rfingers 7.12502
rthumb 7.60092 -57.3102
lclavicle 1.68967e-014 -2.84262e-014
lhumerus -26.4429 18.4785 78.4083
lradius 14.0519
lwrist -13.2145
lhand -21.3424 -1.95957
lfingers 7.12502
lthumb 5.04379 27.9604
rfemur -9.02755 -1.59485 18.6717
rtibia 18.6857
rfoot -13.6138 -0.941917
rtoes 10.7247
lfemur -6.28871 7.01245 -17.6055
ltibia 15.3752
lfoot -10.8269 6.42022
ltoes -0.737541
150
root 0.341897 17.5454 -13.7717 4.48879 -3.63308 -1.21742
lowerback -4.50919 -1.08978 -0.37849
upperback 0.980698 -1.48049 1.39017
thorax 3.58586 -0.75996 1.53311
lowerneck -14.8061 -3.06384 -3.4824
upperneck 20.2852 -3.94454 2.32097
head 8.912 -1.87763 0.89271
rclavicle 4.53478e-015 -1.51076e-014
rhumerus -27.8269 -28.3099 -72.7139
rradius 22.2076
rwrist 39.8115
rhand -18.3993 -27.2689
rfingers 7.12502
rthumb 7.88496 -57.1019
lclavicle 4.53478e-015 -1.51076e-014
lhumerus -26.3952 18.3582 78.5688
lradius 14.0332
lwrist -13.4103
lhand -21.1679 -1.92986
lfingers 7.12502
lthumb 5.21219 27.986
rfemur -9.05969 -1.60355 18.6737
rtibia 18.7062
rfoot -13.5956 -0.951338
rtoes 10.6948
lfemur -6.33838 7.0234 -17.6075
ltibia 15.4187
lfoot -10.825 6.40006
ltoes -0.771593
151
root 0.341796 17.5453 -13.7791 4.4891 -3.6102 -1.21608
lowerback -4.45333 -1.08228 -0.358094
upperback 1.01987 -1.47196 1.39231
thorax 3.59414 -0.755543 1.52518
lowerneck -14.8366 -2.96787 -3.42229
upperneck 20.5101 -3.81873 2.27012
head 8.98844 -1.81887 0.880056
rclavicle -1.83503e-014 2.46493e-014
rhumerus -27.7064 -28.0626 -73.0119
rradius 22.2473
rwrist 39.6819
rhand -18.1137 -27.1049
rfingers 7.12502
rthumb 8.16064 -56.9273
lclavicle -1.83503e-014 2.46493e-014
lhumerus -26.3338 18.2084 78.7315
lradius 14.031
lwrist -13.5534
lhand -21.0679 -1.90311
lfingers 7.12502
lthumb 5.30881 28.0104
rfemur -9.09564 -1.62161 18.6765
rtibia 18.7274
rfoot -13.5769 -0.958156
rtoes 10.658
lfemur -6.39878 7.04138 -17.6093
ltibia 15.4722
lfoot -10.8277 6.36779
ltoes -0.804603
152
root 0.341749 17.5453 -13.7872 4.49321 -3.58139 -1.21844
lowerback -4.39272 -1.07505 -0.334021
upperback 1.05837 -1.46403 1.39598
thorax 3.599 -0.751337 1.5168
lowerneck -14.8686 -2.86543 -3.36393
upperneck 20.7449 -3.68354 2.21989
head 9.0687 -1.75585 0.869125
rclavicle 1.44367e-014 -7.55382e-015
rhumerus -27.57 -27.7338 -73.3394
rradius 22.3241
rwrist 39.4493
rhand -17.8341 -26.9973
rfingers 7.12502
rthumb 8.43049 -56.809
lclavicle 1.44367e-014 -7.55382e-015
lhumerus -26.2534 18.0225 78.9004
lradius 14.0423
lwrist -13.608
lhand -21.0353 -1.87504
lfingers 7.12502
lthumb 5.34028 28.0377
rfemur -9.13843 -1.64197 18.6837
rtibia 18.7511
rfoot -13.5592 -0.967589
rtoes 10.6253
lfemur -6.47293 7.0683 -17.6072
ltibia 15.5369
lfoot -10.8351 6.32162
ltoes -0.82702
